<mxfile host="app.diagrams.net" agent="Mozilla/5.0 (Macintosh; Intel Mac OS X 10_15_7) AppleWebKit/537.36 (KHTML, like Gecko) Chrome/137.0.0.0 Safari/537.36" version="27.2.0">
  <diagram name="Page-1" id="cLk97iHQLmaZrUIqqrmd">
    <mxGraphModel dx="1234" dy="790" grid="1" gridSize="10" guides="1" tooltips="1" connect="1" arrows="1" fold="1" page="1" pageScale="1" pageWidth="1100" pageHeight="850" math="0" shadow="0">
      <root>
        <mxCell id="0" />
        <mxCell id="1" parent="0" />
        <mxCell id="I1hDKyZTGQR--XwQxH3r-68" value="" style="rounded=0;whiteSpace=wrap;html=1;" vertex="1" parent="1">
          <mxGeometry x="120" y="90" width="900" height="480" as="geometry" />
        </mxCell>
        <mxCell id="I1hDKyZTGQR--XwQxH3r-5" value="" style="edgeStyle=orthogonalEdgeStyle;rounded=0;orthogonalLoop=1;jettySize=auto;html=1;" edge="1" parent="1" source="I1hDKyZTGQR--XwQxH3r-2" target="I1hDKyZTGQR--XwQxH3r-3">
          <mxGeometry relative="1" as="geometry" />
        </mxCell>
        <mxCell id="I1hDKyZTGQR--XwQxH3r-50" value="P1, G1" style="edgeLabel;html=1;align=center;verticalAlign=middle;resizable=0;points=[];" vertex="1" connectable="0" parent="I1hDKyZTGQR--XwQxH3r-5">
          <mxGeometry x="0.04" y="1" relative="1" as="geometry">
            <mxPoint as="offset" />
          </mxGeometry>
        </mxCell>
        <mxCell id="I1hDKyZTGQR--XwQxH3r-2" value="CLIENT" style="rounded=1;whiteSpace=wrap;html=1;fillColor=#dae8fc;strokeColor=#6c8ebf;" vertex="1" parent="1">
          <mxGeometry x="150" y="205" width="120" height="60" as="geometry" />
        </mxCell>
        <mxCell id="I1hDKyZTGQR--XwQxH3r-10" value="" style="group" vertex="1" connectable="0" parent="1">
          <mxGeometry x="480" y="190" width="140" height="80" as="geometry" />
        </mxCell>
        <mxCell id="I1hDKyZTGQR--XwQxH3r-8" value="&lt;span style=&quot;color: rgba(0, 0, 0, 0); font-family: monospace; font-size: 0px; text-align: start; text-wrap-mode: nowrap;&quot;&gt;%3CmxGraphModel%3E%3Croot%3E%3CmxCell%20id%3D%220%22%2F%3E%3CmxCell%20id%3D%221%22%20parent%3D%220%22%2F%3E%3CmxCell%20id%3D%222%22%20value%3D%22Application%20server%22%20style%3D%22rounded%3D1%3BwhiteSpace%3Dwrap%3Bhtml%3D1%3B%22%20vertex%3D%221%22%20parent%3D%221%22%3E%3CmxGeometry%20x%3D%22490%22%20y%3D%22210%22%20width%3D%22120%22%20height%3D%2260%22%20as%3D%22geometry%22%2F%3E%3C%2FmxCell%3E%3C%2Froot%3E%3C%2FmxGraphModel%3E&lt;/span&gt;" style="rounded=1;whiteSpace=wrap;html=1;fillColor=#f8cecc;strokeColor=#b85450;" vertex="1" parent="I1hDKyZTGQR--XwQxH3r-10">
          <mxGeometry width="120" height="60" as="geometry" />
        </mxCell>
        <mxCell id="I1hDKyZTGQR--XwQxH3r-9" value="&lt;span style=&quot;color: rgba(0, 0, 0, 0); font-family: monospace; font-size: 0px; text-align: start; text-wrap-mode: nowrap;&quot;&gt;%3CmxGraphModel%3E%3Croot%3E%3CmxCell%20id%3D%220%22%2F%3E%3CmxCell%20id%3D%221%22%20parent%3D%220%22%2F%3E%3CmxCell%20id%3D%222%22%20value%3D%22Application%20server%22%20style%3D%22rounded%3D1%3BwhiteSpace%3Dwrap%3Bhtml%3D1%3B%22%20vertex%3D%221%22%20parent%3D%221%22%3E%3CmxGeometry%20x%3D%22490%22%20y%3D%22210%22%20width%3D%22120%22%20height%3D%2260%22%20as%3D%22geometry%22%2F%3E%3C%2FmxCell%3E%3C%2Froot%3E%3C%2FmxGraphModel%3E&lt;/span&gt;" style="rounded=1;whiteSpace=wrap;html=1;fillColor=#f8cecc;strokeColor=#b85450;" vertex="1" parent="I1hDKyZTGQR--XwQxH3r-10">
          <mxGeometry x="10" y="10" width="120" height="60" as="geometry" />
        </mxCell>
        <mxCell id="I1hDKyZTGQR--XwQxH3r-6" value="Application server" style="rounded=1;whiteSpace=wrap;html=1;fillColor=#f8cecc;strokeColor=#b85450;" vertex="1" parent="I1hDKyZTGQR--XwQxH3r-10">
          <mxGeometry x="20" y="20" width="120" height="60" as="geometry" />
        </mxCell>
        <mxCell id="I1hDKyZTGQR--XwQxH3r-7" value="" style="edgeStyle=orthogonalEdgeStyle;rounded=0;orthogonalLoop=1;jettySize=auto;html=1;" edge="1" parent="1" source="I1hDKyZTGQR--XwQxH3r-3" target="I1hDKyZTGQR--XwQxH3r-6">
          <mxGeometry relative="1" as="geometry" />
        </mxCell>
        <mxCell id="I1hDKyZTGQR--XwQxH3r-51" value="P2, G2" style="edgeLabel;html=1;align=center;verticalAlign=middle;resizable=0;points=[];" vertex="1" connectable="0" parent="I1hDKyZTGQR--XwQxH3r-7">
          <mxGeometry x="-0.5" y="3" relative="1" as="geometry">
            <mxPoint x="2" as="offset" />
          </mxGeometry>
        </mxCell>
        <mxCell id="I1hDKyZTGQR--XwQxH3r-34" style="edgeStyle=orthogonalEdgeStyle;rounded=0;orthogonalLoop=1;jettySize=auto;html=1;exitX=1;exitY=0.5;exitDx=0;exitDy=0;entryX=0;entryY=0.5;entryDx=0;entryDy=0;" edge="1" parent="1" source="I1hDKyZTGQR--XwQxH3r-11" target="I1hDKyZTGQR--XwQxH3r-31">
          <mxGeometry relative="1" as="geometry" />
        </mxCell>
        <mxCell id="I1hDKyZTGQR--XwQxH3r-63" value="G4" style="edgeLabel;html=1;align=center;verticalAlign=middle;resizable=0;points=[];" vertex="1" connectable="0" parent="I1hDKyZTGQR--XwQxH3r-34">
          <mxGeometry x="0.225" relative="1" as="geometry">
            <mxPoint as="offset" />
          </mxGeometry>
        </mxCell>
        <mxCell id="I1hDKyZTGQR--XwQxH3r-37" style="edgeStyle=orthogonalEdgeStyle;rounded=0;orthogonalLoop=1;jettySize=auto;html=1;entryX=0;entryY=0.5;entryDx=0;entryDy=0;" edge="1" parent="1" source="I1hDKyZTGQR--XwQxH3r-11" target="I1hDKyZTGQR--XwQxH3r-35">
          <mxGeometry relative="1" as="geometry" />
        </mxCell>
        <mxCell id="I1hDKyZTGQR--XwQxH3r-59" value="P8, G6" style="edgeLabel;html=1;align=center;verticalAlign=middle;resizable=0;points=[];" vertex="1" connectable="0" parent="I1hDKyZTGQR--XwQxH3r-37">
          <mxGeometry x="0.0133" relative="1" as="geometry">
            <mxPoint as="offset" />
          </mxGeometry>
        </mxCell>
        <mxCell id="I1hDKyZTGQR--XwQxH3r-27" value="" style="edgeStyle=orthogonalEdgeStyle;rounded=0;orthogonalLoop=1;jettySize=auto;html=1;dashed=1;" edge="1" parent="1" source="I1hDKyZTGQR--XwQxH3r-15" target="I1hDKyZTGQR--XwQxH3r-25">
          <mxGeometry relative="1" as="geometry" />
        </mxCell>
        <mxCell id="I1hDKyZTGQR--XwQxH3r-15" value="Key DB" style="shape=datastore;whiteSpace=wrap;html=1;fillColor=#f5f5f5;fontColor=#333333;strokeColor=#666666;" vertex="1" parent="1">
          <mxGeometry x="502.5" y="485" width="115" height="60" as="geometry" />
        </mxCell>
        <mxCell id="I1hDKyZTGQR--XwQxH3r-21" style="edgeStyle=orthogonalEdgeStyle;rounded=0;orthogonalLoop=1;jettySize=auto;html=1;exitX=0.25;exitY=1;exitDx=0;exitDy=0;entryX=0.233;entryY=0;entryDx=0;entryDy=0;entryPerimeter=0;" edge="1" parent="1" source="I1hDKyZTGQR--XwQxH3r-12" target="I1hDKyZTGQR--XwQxH3r-15">
          <mxGeometry relative="1" as="geometry" />
        </mxCell>
        <mxCell id="I1hDKyZTGQR--XwQxH3r-23" value="store Keys" style="edgeLabel;html=1;align=center;verticalAlign=middle;resizable=0;points=[];" vertex="1" connectable="0" parent="I1hDKyZTGQR--XwQxH3r-21">
          <mxGeometry x="-0.2899" relative="1" as="geometry">
            <mxPoint as="offset" />
          </mxGeometry>
        </mxCell>
        <mxCell id="I1hDKyZTGQR--XwQxH3r-22" style="edgeStyle=orthogonalEdgeStyle;rounded=0;orthogonalLoop=1;jettySize=auto;html=1;exitX=0.85;exitY=0.05;exitDx=0;exitDy=0;entryX=0.75;entryY=1;entryDx=0;entryDy=0;exitPerimeter=0;" edge="1" parent="1" source="I1hDKyZTGQR--XwQxH3r-15" target="I1hDKyZTGQR--XwQxH3r-12">
          <mxGeometry relative="1" as="geometry" />
        </mxCell>
        <mxCell id="I1hDKyZTGQR--XwQxH3r-24" value="Get Keys" style="edgeLabel;html=1;align=center;verticalAlign=middle;resizable=0;points=[];" vertex="1" connectable="0" parent="I1hDKyZTGQR--XwQxH3r-22">
          <mxGeometry x="-0.1785" y="-1" relative="1" as="geometry">
            <mxPoint as="offset" />
          </mxGeometry>
        </mxCell>
        <mxCell id="I1hDKyZTGQR--XwQxH3r-56" value="P5" style="edgeLabel;html=1;align=center;verticalAlign=middle;resizable=0;points=[];" vertex="1" connectable="0" parent="I1hDKyZTGQR--XwQxH3r-22">
          <mxGeometry x="-0.7788" y="-1" relative="1" as="geometry">
            <mxPoint y="-8" as="offset" />
          </mxGeometry>
        </mxCell>
        <mxCell id="I1hDKyZTGQR--XwQxH3r-25" value="Key DB (Standby)" style="shape=datastore;whiteSpace=wrap;html=1;fillColor=#f5f5f5;fontColor=#333333;strokeColor=#666666;" vertex="1" parent="1">
          <mxGeometry x="342.5" y="485" width="115" height="60" as="geometry" />
        </mxCell>
        <mxCell id="I1hDKyZTGQR--XwQxH3r-28" value="" style="edgeStyle=orthogonalEdgeStyle;rounded=0;orthogonalLoop=1;jettySize=auto;html=1;" edge="1" parent="1" source="I1hDKyZTGQR--XwQxH3r-6" target="I1hDKyZTGQR--XwQxH3r-11">
          <mxGeometry relative="1" as="geometry" />
        </mxCell>
        <mxCell id="I1hDKyZTGQR--XwQxH3r-58" value="P7,G3" style="edgeLabel;html=1;align=center;verticalAlign=middle;resizable=0;points=[];" vertex="1" connectable="0" parent="I1hDKyZTGQR--XwQxH3r-28">
          <mxGeometry x="-0.0333" y="-2" relative="1" as="geometry">
            <mxPoint x="1" as="offset" />
          </mxGeometry>
        </mxCell>
        <mxCell id="I1hDKyZTGQR--XwQxH3r-38" value="" style="group" vertex="1" connectable="0" parent="1">
          <mxGeometry x="840" y="270" width="132.5" height="70" as="geometry" />
        </mxCell>
        <mxCell id="I1hDKyZTGQR--XwQxH3r-36" value="Key DB" style="shape=datastore;whiteSpace=wrap;html=1;fillColor=#f5f5f5;fontColor=#333333;strokeColor=#666666;" vertex="1" parent="I1hDKyZTGQR--XwQxH3r-38">
          <mxGeometry x="17.5" width="115" height="60" as="geometry" />
        </mxCell>
        <mxCell id="I1hDKyZTGQR--XwQxH3r-35" value="Key DB" style="shape=datastore;whiteSpace=wrap;html=1;fillColor=#f5f5f5;fontColor=#333333;strokeColor=#666666;" vertex="1" parent="I1hDKyZTGQR--XwQxH3r-38">
          <mxGeometry y="10" width="115" height="60" as="geometry" />
        </mxCell>
        <mxCell id="I1hDKyZTGQR--XwQxH3r-39" value="" style="group" vertex="1" connectable="0" parent="1">
          <mxGeometry x="840" y="120" width="130" height="70" as="geometry" />
        </mxCell>
        <mxCell id="I1hDKyZTGQR--XwQxH3r-32" value="Cache Servers" style="rounded=1;whiteSpace=wrap;html=1;fillColor=#d5e8d4;strokeColor=#82b366;" vertex="1" parent="I1hDKyZTGQR--XwQxH3r-39">
          <mxGeometry x="10" width="120" height="60" as="geometry" />
        </mxCell>
        <mxCell id="I1hDKyZTGQR--XwQxH3r-31" value="Cache Servers" style="rounded=1;whiteSpace=wrap;html=1;fillColor=#d5e8d4;strokeColor=#82b366;" vertex="1" parent="I1hDKyZTGQR--XwQxH3r-39">
          <mxGeometry y="10" width="120" height="60" as="geometry" />
        </mxCell>
        <mxCell id="I1hDKyZTGQR--XwQxH3r-40" value="" style="group" vertex="1" connectable="0" parent="1">
          <mxGeometry x="680" y="190" width="80" height="90" as="geometry" />
        </mxCell>
        <mxCell id="I1hDKyZTGQR--XwQxH3r-30" value="LB" style="rhombus;whiteSpace=wrap;html=1;fillColor=#ffe6cc;strokeColor=#d79b00;" vertex="1" parent="I1hDKyZTGQR--XwQxH3r-40">
          <mxGeometry width="80" height="80" as="geometry" />
        </mxCell>
        <mxCell id="I1hDKyZTGQR--XwQxH3r-11" value="LB" style="rhombus;whiteSpace=wrap;html=1;fillColor=#ffe6cc;strokeColor=#d79b00;" vertex="1" parent="I1hDKyZTGQR--XwQxH3r-40">
          <mxGeometry y="10" width="80" height="80" as="geometry" />
        </mxCell>
        <mxCell id="I1hDKyZTGQR--XwQxH3r-42" value="" style="group" vertex="1" connectable="0" parent="1">
          <mxGeometry x="500" y="340" width="130" height="70" as="geometry" />
        </mxCell>
        <mxCell id="I1hDKyZTGQR--XwQxH3r-41" value="Key Generation Service" style="rounded=1;whiteSpace=wrap;html=1;fillColor=#b0e3e6;strokeColor=#0e8088;" vertex="1" parent="I1hDKyZTGQR--XwQxH3r-42">
          <mxGeometry x="10" width="120" height="60" as="geometry" />
        </mxCell>
        <mxCell id="I1hDKyZTGQR--XwQxH3r-12" value="Key Generation Service" style="rounded=1;whiteSpace=wrap;html=1;fillColor=#b0e3e6;strokeColor=#0e8088;" vertex="1" parent="I1hDKyZTGQR--XwQxH3r-42">
          <mxGeometry y="10" width="120" height="60" as="geometry" />
        </mxCell>
        <mxCell id="I1hDKyZTGQR--XwQxH3r-45" style="edgeStyle=orthogonalEdgeStyle;rounded=0;orthogonalLoop=1;jettySize=auto;html=1;entryX=1;entryY=0.7;entryDx=0;entryDy=0;" edge="1" parent="1" source="I1hDKyZTGQR--XwQxH3r-43" target="I1hDKyZTGQR--XwQxH3r-15">
          <mxGeometry relative="1" as="geometry" />
        </mxCell>
        <mxCell id="I1hDKyZTGQR--XwQxH3r-46" style="edgeStyle=orthogonalEdgeStyle;rounded=0;orthogonalLoop=1;jettySize=auto;html=1;exitX=0.5;exitY=0;exitDx=0;exitDy=0;" edge="1" parent="1" source="I1hDKyZTGQR--XwQxH3r-43" target="I1hDKyZTGQR--XwQxH3r-35">
          <mxGeometry relative="1" as="geometry" />
        </mxCell>
        <mxCell id="I1hDKyZTGQR--XwQxH3r-48" value="" style="group" vertex="1" connectable="0" parent="1">
          <mxGeometry x="812.5" y="497.5" width="178.75" height="47.5" as="geometry" />
        </mxCell>
        <mxCell id="I1hDKyZTGQR--XwQxH3r-47" value="Cleanup Service" style="rounded=1;whiteSpace=wrap;html=1;fillColor=#e1d5e7;strokeColor=#9673a6;" vertex="1" parent="I1hDKyZTGQR--XwQxH3r-48">
          <mxGeometry x="8.75" width="170" height="35" as="geometry" />
        </mxCell>
        <mxCell id="I1hDKyZTGQR--XwQxH3r-43" value="Cleanup Service" style="rounded=1;whiteSpace=wrap;html=1;fillColor=#e1d5e7;strokeColor=#9673a6;" vertex="1" parent="I1hDKyZTGQR--XwQxH3r-48">
          <mxGeometry y="12.5" width="170" height="35" as="geometry" />
        </mxCell>
        <mxCell id="I1hDKyZTGQR--XwQxH3r-54" value="" style="edgeStyle=orthogonalEdgeStyle;rounded=0;orthogonalLoop=1;jettySize=auto;html=1;" edge="1" parent="1" source="I1hDKyZTGQR--XwQxH3r-12" target="I1hDKyZTGQR--XwQxH3r-15">
          <mxGeometry relative="1" as="geometry">
            <Array as="points">
              <mxPoint x="570" y="430" />
              <mxPoint x="570" y="430" />
            </Array>
          </mxGeometry>
        </mxCell>
        <mxCell id="I1hDKyZTGQR--XwQxH3r-55" value="P4" style="edgeLabel;html=1;align=center;verticalAlign=middle;resizable=0;points=[];" vertex="1" connectable="0" parent="I1hDKyZTGQR--XwQxH3r-54">
          <mxGeometry x="-0.68" y="1" relative="1" as="geometry">
            <mxPoint as="offset" />
          </mxGeometry>
        </mxCell>
        <mxCell id="I1hDKyZTGQR--XwQxH3r-61" value="" style="group" vertex="1" connectable="0" parent="1">
          <mxGeometry x="350" y="190" width="80" height="90" as="geometry" />
        </mxCell>
        <mxCell id="I1hDKyZTGQR--XwQxH3r-29" value="LB" style="rhombus;whiteSpace=wrap;html=1;fillColor=#ffe6cc;strokeColor=#d79b00;" vertex="1" parent="I1hDKyZTGQR--XwQxH3r-61">
          <mxGeometry width="80" height="80" as="geometry" />
        </mxCell>
        <mxCell id="I1hDKyZTGQR--XwQxH3r-3" value="LB" style="rhombus;whiteSpace=wrap;html=1;fillColor=#ffe6cc;strokeColor=#d79b00;" vertex="1" parent="I1hDKyZTGQR--XwQxH3r-61">
          <mxGeometry y="10" width="80" height="80" as="geometry" />
        </mxCell>
        <mxCell id="I1hDKyZTGQR--XwQxH3r-65" style="edgeStyle=orthogonalEdgeStyle;rounded=0;orthogonalLoop=1;jettySize=auto;html=1;exitX=0;exitY=0.25;exitDx=0;exitDy=0;" edge="1" parent="1" source="I1hDKyZTGQR--XwQxH3r-31" target="I1hDKyZTGQR--XwQxH3r-6">
          <mxGeometry relative="1" as="geometry" />
        </mxCell>
        <mxCell id="I1hDKyZTGQR--XwQxH3r-66" value="G5" style="edgeLabel;html=1;align=center;verticalAlign=middle;resizable=0;points=[];" vertex="1" connectable="0" parent="I1hDKyZTGQR--XwQxH3r-65">
          <mxGeometry x="-0.297" y="-3" relative="1" as="geometry">
            <mxPoint as="offset" />
          </mxGeometry>
        </mxCell>
        <mxCell id="I1hDKyZTGQR--XwQxH3r-17" style="edgeStyle=orthogonalEdgeStyle;rounded=0;orthogonalLoop=1;jettySize=auto;html=1;exitX=0.25;exitY=1;exitDx=0;exitDy=0;entryX=0.25;entryY=0;entryDx=0;entryDy=0;" edge="1" parent="1" source="I1hDKyZTGQR--XwQxH3r-6" target="I1hDKyZTGQR--XwQxH3r-12">
          <mxGeometry relative="1" as="geometry" />
        </mxCell>
        <mxCell id="I1hDKyZTGQR--XwQxH3r-53" value="P3" style="edgeLabel;html=1;align=center;verticalAlign=middle;resizable=0;points=[];" vertex="1" connectable="0" parent="I1hDKyZTGQR--XwQxH3r-17">
          <mxGeometry x="-0.7" y="1" relative="1" as="geometry">
            <mxPoint as="offset" />
          </mxGeometry>
        </mxCell>
        <mxCell id="I1hDKyZTGQR--XwQxH3r-18" style="edgeStyle=orthogonalEdgeStyle;rounded=0;orthogonalLoop=1;jettySize=auto;html=1;exitX=0.75;exitY=0;exitDx=0;exitDy=0;entryX=0.75;entryY=1;entryDx=0;entryDy=0;" edge="1" parent="1" source="I1hDKyZTGQR--XwQxH3r-12" target="I1hDKyZTGQR--XwQxH3r-6">
          <mxGeometry relative="1" as="geometry" />
        </mxCell>
        <mxCell id="I1hDKyZTGQR--XwQxH3r-20" value="Return Unique ID" style="edgeLabel;html=1;align=center;verticalAlign=middle;resizable=0;points=[];" vertex="1" connectable="0" parent="I1hDKyZTGQR--XwQxH3r-18">
          <mxGeometry x="-0.425" y="1" relative="1" as="geometry">
            <mxPoint as="offset" />
          </mxGeometry>
        </mxCell>
        <mxCell id="I1hDKyZTGQR--XwQxH3r-57" value="P6" style="edgeLabel;html=1;align=center;verticalAlign=middle;resizable=0;points=[];" vertex="1" connectable="0" parent="I1hDKyZTGQR--XwQxH3r-18">
          <mxGeometry x="0.475" y="-1" relative="1" as="geometry">
            <mxPoint as="offset" />
          </mxGeometry>
        </mxCell>
      </root>
    </mxGraphModel>
  </diagram>
</mxfile>
